<svg width="64" height="64" viewBox="0 0 64 64" fill="none" xmlns="http://www.w3.org/2000/svg">
<rect width="64" height="64" rx="4" fill="#DA0081"/>
<g opacity="0.4">
<path d="M30.4004 28.8002L30.4004 9.60002C30.4004 8.71635 29.684 8 28.8004 8L9.60015 8C8.71649 8 8.00013 8.71635 8.00013 9.60002L8.00013 28.8002C8.00013 29.6839 8.71648 30.4003 9.60015 30.4003L28.8004 30.4003C29.684 30.4003 30.4004 29.6839 30.4004 28.8002Z" fill="#ECE7F5"/>
<path d="M19.2003 46.3998L28.8004 46.3998C29.684 46.3998 30.4004 45.6834 30.4004 44.7998L30.4004 35.1997C30.4004 34.316 29.684 33.5996 28.8004 33.5996L19.2003 33.5996C18.3166 33.5996 17.6002 34.316 17.6002 35.1997L17.6002 44.7998C17.6002 45.6834 18.3166 46.3998 19.2003 46.3998Z" fill="#ECE7F5"/>
<path d="M9.60017 56.0012L14.4002 56.0012C15.2839 56.0012 16.0002 55.2849 16.0002 54.4012L16.0002 49.6011C16.0002 48.7175 15.2839 48.0011 14.4002 48.0011L9.60017 48.0011C8.71651 48.0011 8.00015 48.7175 8.00015 49.6011L8.00015 54.4012C8.00015 55.2849 8.71651 56.0012 9.60017 56.0012Z" fill="#ECE7F5"/>
<path d="M33.5999 35.201L33.5999 54.4012C33.5999 55.2849 34.3162 56.0012 35.1999 56.0012L54.4001 56.0012C55.2838 56.0012 56.0001 55.2849 56.0001 54.4012L56.0001 35.201C56.0001 34.3173 55.2838 33.601 54.4001 33.601L35.1999 33.601C34.3162 33.601 33.5999 34.3173 33.5999 35.201Z" fill="#ECE7F5"/>
<path d="M44.8 17.6L35.1999 17.6C34.3162 17.6 33.5999 18.3163 33.5999 19.2L33.5999 28.8001C33.5999 29.6838 34.3162 30.4001 35.1999 30.4001L44.8 30.4001C45.6836 30.4001 46.4 29.6838 46.4 28.8001L46.4 19.2C46.4 18.3163 45.6836 17.6 44.8 17.6Z" fill="#ECE7F5"/>
<path d="M54.3998 8L49.5998 8C48.7161 8 47.9998 8.71635 47.9998 9.60002L47.9998 14.4001C47.9998 15.2837 48.7161 16.0001 49.5998 16.0001L54.3998 16.0001C55.2835 16.0001 55.9998 15.2837 55.9998 14.4001L55.9998 9.60002C55.9998 8.71635 55.2835 8 54.3998 8Z" fill="#ECE7F5"/>
</g>
</svg>
